<svg width="613" height="488" viewBox="0 0 613 488" fill="none" xmlns="http://www.w3.org/2000/svg">
<g id="xbox-logo">
<g id="xbox-symbol">
<path d="M213.271 223.506C222.5 193.444 266.478 142.803 306.448 111.998C356.857 152.986 391.48 196.265 399.881 223.76C409.759 256.092 333.944 276.968 306.704 276.968C270.044 276.968 204.041 253.568 213.271 223.506Z" fill="#F7F7F7"/>
<path d="M269.168 77.1204C230.98 124.982 189.483 186.337 198.139 221.978C176.754 192.956 168.559 173.328 169.625 125.237C170.898 90.1042 201.958 39.6967 213.414 39.6967C227.671 40.9696 238.388 48.3531 269.168 77.1204Z" fill="#F7F7F7"/>
<path d="M398.914 39.4421C383.13 41.9879 370.428 51.1759 343.415 77.375C377.529 116.326 423.863 190.41 414.698 222.488C438.12 190.41 444.06 170.049 443.72 127.019C441.175 89.3404 411.898 41.2242 398.914 39.4421Z" fill="#F7F7F7"/>
<path d="M378.547 22.6396C353.086 21.4717 337.36 25.5875 306.245 43.0062C278.831 26.9717 263.054 21.9451 233.944 22.385C259.005 6.94734 274.768 2.09308 306.245 1C334.25 1 365.054 11.9471 378.547 22.6396Z" fill="#F7F7F7"/>
<path d="M213.271 223.506C222.5 193.444 266.478 142.803 306.448 111.998C356.857 152.986 391.48 196.265 399.881 223.76C409.759 256.092 333.944 276.968 306.704 276.968C270.044 276.968 204.041 253.568 213.271 223.506Z" stroke="#F7F7F7"/>
<path d="M269.168 77.1204C230.98 124.982 189.483 186.337 198.139 221.978C176.754 192.956 168.559 173.328 169.625 125.237C170.898 90.1042 201.958 39.6967 213.414 39.6967C227.671 40.9696 238.388 48.3531 269.168 77.1204Z" stroke="#F7F7F7"/>
<path d="M398.914 39.4421C383.13 41.9879 370.428 51.1759 343.415 77.375C377.529 116.326 423.863 190.41 414.698 222.488C438.12 190.41 444.06 170.049 443.72 127.019C441.175 89.3404 411.898 41.2242 398.914 39.4421Z" stroke="#F7F7F7"/>
<path d="M378.547 22.6396C353.086 21.4717 337.36 25.5875 306.245 43.0062C278.831 26.9717 263.054 21.9451 233.944 22.385C259.005 6.94734 274.768 2.09308 306.245 1C334.25 1 365.054 11.9471 378.547 22.6396Z" stroke="#F7F7F7"/>
</g>
<path id="xbox-x2" d="M464.342 317.193L521.623 396.114L459.25 481.908H487.254L535.88 415.717L584.25 481.908H612L549.882 396.114L607.163 317.193H579.413L535.88 377.02L492.346 317.193H464.342Z" fill="#F7F7F7" stroke="#F7F7F7"/>
<path id="xbox-o" fill-rule="evenodd" clip-rule="evenodd" d="M391.162 314.665C355.382 315.439 338.208 329.431 322.286 353.107C319.231 357.65 314.394 369.4 313.121 382.639C311.339 389.258 310.84 405.672 313.121 419.808C315.941 437.274 318.614 442.024 323.034 449.876C323.123 450.035 323.214 450.196 323.305 450.358C343.162 479.126 360.581 485.914 391.162 487.272C428.879 485.386 445.25 473.27 460.78 450.867C466.994 438.929 469.217 432.26 471.472 419.808C473.076 405.29 472.936 397.157 471.472 382.639C469.397 370.828 467.003 364.19 461.289 352.343C445.505 324.084 414.7 314.156 391.162 314.665ZM428.076 352.343C417.954 342.924 403.443 338.087 391.162 338.087C374.675 338.85 361.182 344.451 353.993 352.343C346.671 360.381 341.324 370.419 338.208 382.639C336.131 390.785 335.849 405.467 338.208 419.808C341.366 434.449 345.172 441.023 353.993 451.122C362.813 461.22 385.367 466.397 391.162 465.633C397.587 466.397 417.13 462.069 428.076 451.122C437.08 441.304 440.703 434.634 443.606 419.808C445.869 406.335 445.704 397.659 443.606 382.639C441.63 371.437 437.302 363.036 428.076 352.343Z" fill="#F7F7F7" stroke="#F7F7F7"/>
<g id="xbox-b">
<path fill-rule="evenodd" clip-rule="evenodd" d="M144.076 388.476H166.225V318.466H246.418C272.895 321.266 291.734 333.741 291.989 361.49C291.007 380.125 285.706 387.495 270.858 397.132C289.847 407.827 298.099 416.48 298.863 437.101C296.062 470.961 278.241 478.598 249.473 483.69H166.225V409.606H129.31L144.076 388.476ZM191.428 340.105V388.476H243.873C259.402 386.185 266.236 380.48 267.04 363.781C266.785 349.779 259.402 342.396 243.873 340.105H191.428ZM247.182 461.287H191.428V409.861H247.182C262.966 411.643 272.895 416.989 273.15 435.828C273.15 452.122 263.475 459.759 247.182 461.287Z" fill="#F7F7F7"/>
<path d="M166.225 318.211V318.466M166.225 318.466V388.476H144.076L129.31 409.606H166.225V483.69H249.473C278.241 478.598 296.062 470.961 298.863 437.101C298.099 416.48 289.847 407.827 270.858 397.132C285.706 387.495 291.007 380.125 291.989 361.49C291.734 333.741 272.895 321.266 246.418 318.466H166.225ZM191.428 409.606V409.861M191.428 409.861V461.287H247.182C263.475 459.759 273.15 452.122 273.15 435.828C272.895 416.989 262.966 411.643 247.182 409.861H191.428ZM191.428 340.105V388.476H243.873C259.402 386.185 266.236 380.48 267.04 363.781C266.785 349.779 259.402 342.396 243.873 340.105H191.428Z" stroke="#F7F7F7"/>
</g>
<path id="xbox-x" d="M6.09167 318.72L63.3729 397.641L1 483.435H29.0042L77.6296 417.243L126 483.435H153.75L91.6317 397.641L148.913 318.72H121.163L77.6296 378.547L34.0958 318.72H6.09167Z" fill="#F7F7F7" stroke="#F7F7F7"/>
</g>
</svg>
